# Blender 4.2.0
# www.blender.org
mtllib tabletennisbat.mtl
o Circle.002
v -0.155227 -0.003000 0.077367
v -0.186313 -0.003000 0.069700
v -0.210789 -0.003000 0.053346
v -0.227143 -0.003000 0.028871
v -0.232885 -0.003000 0.000000
v -0.227143 -0.003000 -0.028871
v -0.210789 -0.003000 -0.053346
v -0.186313 -0.003000 -0.069700
v -0.155227 -0.003000 -0.077367
v -0.119990 -0.003000 -0.079538
v -0.089291 -0.003000 -0.065129
v -0.072727 -0.003000 -0.032981
v -0.072727 -0.003000 0.032981
v -0.089291 -0.003000 0.065129
v -0.119990 -0.003000 0.079538
v -0.186313 -0.005000 0.069700
v -0.155227 -0.005000 0.077367
v -0.210789 -0.005000 0.053346
v -0.227143 -0.005000 0.028871
v -0.232885 -0.005000 0.000000
v -0.227143 -0.005000 -0.028871
v -0.210789 -0.005000 -0.053346
v -0.186313 -0.005000 -0.069700
v -0.155227 -0.005000 -0.077367
v -0.119990 -0.005000 -0.079538
v -0.089291 -0.005000 -0.065129
v -0.072727 -0.005000 -0.032981
v -0.072727 -0.005000 0.032981
v -0.089291 -0.005000 0.065129
v -0.119990 -0.005000 0.079538
vn -0.0000 -1.0000 -0.0000
vn -0.0000 1.0000 -0.0000
vn 0.8315 -0.0000 0.5556
vn 0.8889 -0.0000 0.4580
vn 0.5556 -0.0000 0.8315
vn 0.4249 -0.0000 0.9052
vn 0.2395 -0.0000 0.9709
vn 0.2395 -0.0000 -0.9709
vn -0.0615 -0.0000 0.9981
vn 0.0615 -0.0000 0.9981
vn 0.5556 -0.0000 -0.8315
vn -0.4249 -0.0000 0.9052
vn 0.8315 -0.0000 -0.5556
vn -0.8889 -0.0000 0.4580
vn 0.9808 -0.0000 -0.1951
vn 0.9808 -0.0000 0.1951
vn -1.0000 -0.0000 -0.0000
vt 0.000000 0.000000
s 0
usemtl Material.004
f 12/1/1 13/1/1 5/1/1
f 9/1/1 12/1/1 5/1/1
f 5/1/1 13/1/1 1/1/1
f 1/1/1 3/1/1 5/1/1
f 14/1/2 13/1/2 15/1/2
f 1/1/2 15/1/2 13/1/2
f 9/1/1 10/1/1 12/1/1
f 11/1/1 12/1/1 10/1/1
f 5/1/1 7/1/1 9/1/1
f 6/1/1 7/1/1 5/1/1
f 4/1/1 5/1/1 3/1/1
f 2/1/1 3/1/1 1/1/1
f 8/1/1 9/1/1 7/1/1
f 27/1/2 20/1/2 28/1/2
f 24/1/2 20/1/2 27/1/2
f 20/1/2 17/1/2 28/1/2
f 17/1/2 20/1/2 18/1/2
f 29/1/1 30/1/1 28/1/1
f 17/1/1 28/1/1 30/1/1
f 24/1/2 27/1/2 25/1/2
f 26/1/2 25/1/2 27/1/2
f 20/1/2 24/1/2 22/1/2
f 21/1/2 20/1/2 22/1/2
f 19/1/2 18/1/2 20/1/2
f 16/1/2 17/1/2 18/1/2
f 23/1/2 22/1/2 24/1/2
f 7/1/3 6/1/3 21/1/3 22/1/3
f 13/1/4 14/1/4 29/1/4 28/1/4
f 8/1/5 7/1/5 22/1/5 23/1/5
f 14/1/6 15/1/6 30/1/6 29/1/6
f 9/1/7 8/1/7 23/1/7 24/1/7
f 2/1/8 1/1/8 17/1/8 16/1/8
f 15/1/9 1/1/9 17/1/9 30/1/9
f 10/1/10 9/1/10 24/1/10 25/1/10
f 3/1/11 2/1/11 16/1/11 18/1/11
f 11/1/12 10/1/12 25/1/12 26/1/12
f 4/1/13 3/1/13 18/1/13 19/1/13
f 12/1/14 11/1/14 26/1/14 27/1/14
f 5/1/15 4/1/15 19/1/15 20/1/15
f 6/1/16 5/1/16 20/1/16 21/1/16
f 13/1/17 12/1/17 27/1/17 28/1/17
o Circle.005
v -0.155227 0.003000 -0.077367
v -0.186313 0.003000 -0.069700
v -0.210789 0.003000 -0.053346
v -0.227143 0.003000 -0.028871
v -0.232885 0.003000 0.000000
v -0.227143 0.003000 0.028871
v -0.210789 0.003000 0.053346
v -0.186313 0.003000 0.069700
v -0.155227 0.003000 0.077367
v -0.119990 0.003000 0.079538
v -0.089291 0.003000 0.065129
v -0.072727 0.003000 0.041373
v -0.072727 0.003000 -0.041373
v -0.089291 0.003000 -0.065129
v -0.119990 0.003000 -0.079538
v -0.155227 -0.003000 0.077367
v -0.186313 -0.003000 0.069700
v -0.210789 -0.003000 0.053346
v -0.227143 -0.003000 0.028871
v -0.232885 -0.003000 0.000000
v -0.227143 -0.003000 -0.028871
v -0.210789 -0.003000 -0.053346
v -0.186313 -0.003000 -0.069700
v -0.155227 -0.003000 -0.077367
v -0.119990 -0.003000 -0.079538
v -0.089291 -0.003000 -0.065129
v -0.072727 -0.003000 -0.041373
v -0.072727 -0.003000 0.041373
v -0.089291 -0.003000 0.065129
v -0.119990 -0.003000 0.079538
v -0.049153 0.003000 0.013865
v -0.049153 0.003000 -0.013865
v -0.049153 -0.003000 -0.013865
v -0.049153 -0.003000 0.013865
v -0.072727 0.003000 0.013865
v -0.072727 0.003000 -0.013865
v -0.072727 -0.003000 -0.013865
v -0.072727 -0.003000 0.013865
v -0.000577 -0.003568 0.016490
v -0.000577 0.003568 0.016490
v -0.000577 0.003568 -0.016490
v -0.000577 -0.003568 -0.016490
v -0.049153 0.008568 0.012676
v -0.049153 0.008568 -0.012676
v -0.049153 -0.008568 -0.012676
v -0.049153 -0.008568 0.012676
v -0.000577 -0.010190 -0.014774
v -0.000577 -0.010190 0.014774
v -0.000577 0.010190 0.014774
v -0.000577 0.010190 -0.014774
v 0.053413 -0.011954 -0.017332
v 0.053413 -0.011954 0.017332
v 0.053413 -0.004185 0.019344
v 0.053413 0.004185 0.019344
v 0.053413 0.004185 -0.019344
v 0.053413 -0.004185 -0.019344
v 0.053413 0.011954 0.017332
v 0.053413 0.011954 -0.017332
vn -0.0000 -1.0000 -0.0000
vn -0.0000 1.0000 -0.0000
vn -0.8203 -0.0000 -0.5719
vn -0.4249 -0.0000 -0.9052
vn 0.0615 -0.0000 -0.9981
vn 0.2395 -0.0000 -0.9709
vn 0.5556 -0.0000 -0.8315
vn 0.8315 -0.0000 -0.5556
vn 0.9808 -0.0000 -0.1951
vn 0.9808 -0.0000 0.1951
vn 0.8315 -0.0000 0.5556
vn 0.5556 -0.0000 0.8315
vn 0.2395 -0.0000 0.9709
vn -0.0615 -0.0000 -0.9981
vn 0.4249 -0.0000 -0.9052
vn 0.8203 -0.0000 -0.5719
vn -0.7593 -0.0000 -0.6507
vn -0.7593 -0.0000 0.6507
vn -0.0000 0.2087 -0.9780
vn 0.0540 -0.0000 -0.9985
vn -0.0000 0.2087 0.9780
vn 0.2299 0.9732 -0.0000
vn 0.2299 -0.9732 -0.0000
vn -0.0000 -0.2087 0.9780
vn 0.0528 -0.0000 0.9986
vn 0.0540 -0.2504 -0.9666
vn 0.0524 0.2314 -0.9714
vn 0.0524 -0.2314 0.9714
vn -0.0000 -0.2087 -0.9780
vn 0.0540 0.2504 -0.9666
vn 0.0334 -0.9994 -0.0000
vn 0.0524 -0.2314 -0.9714
vn 0.0334 0.9994 -0.0000
vn 0.0524 0.2314 0.9714
vn 0.0540 -0.0000 0.9985
vn -1.0000 -0.0000 -0.0000
vn 0.0327 0.9995 -0.0000
vn 0.0540 -0.2504 0.9666
vn 0.0327 -0.9995 -0.0000
vn 0.0528 -0.0000 -0.9986
vn 0.0540 0.2504 0.9666
vt 0.000000 0.000000
s 0
usemtl Material.005
f 42/2/18 35/2/18 43/2/18 66/2/18 65/2/18
f 39/2/18 35/2/18 42/2/18
f 35/2/18 31/2/18 43/2/18
f 31/2/18 35/2/18 33/2/18
f 44/2/19 45/2/19 43/2/19
f 31/2/19 43/2/19 45/2/19
f 39/2/18 42/2/18 40/2/18
f 41/2/18 40/2/18 42/2/18
f 35/2/18 39/2/18 37/2/18
f 36/2/18 35/2/18 37/2/18
f 34/2/18 33/2/18 35/2/18
f 32/2/18 31/2/18 33/2/18
f 38/2/18 37/2/18 39/2/18
f 57/2/19 50/2/19 58/2/19 68/2/19 67/2/19
f 54/2/19 50/2/19 57/2/19
f 50/2/19 46/2/19 58/2/19
f 46/2/19 50/2/19 48/2/19
f 59/2/18 60/2/18 58/2/18
f 46/2/18 58/2/18 60/2/18
f 54/2/19 57/2/19 55/2/19
f 56/2/19 55/2/19 57/2/19
f 50/2/19 54/2/19 52/2/19
f 51/2/19 50/2/19 52/2/19
f 49/2/19 48/2/19 50/2/19
f 47/2/19 46/2/19 48/2/19
f 53/2/19 52/2/19 54/2/19
f 66/2/18 43/2/18 62/2/18
f 42/2/20 58/2/20 59/2/20 41/2/20
f 41/2/21 59/2/21 60/2/21 40/2/21
f 40/2/22 60/2/22 46/2/22 39/2/22
f 39/2/23 46/2/23 47/2/23 38/2/23
f 38/2/24 47/2/24 48/2/24 37/2/24
f 37/2/25 48/2/25 49/2/25 36/2/25
f 36/2/26 49/2/26 50/2/26 35/2/26
f 35/2/27 50/2/27 51/2/27 34/2/27
f 34/2/28 51/2/28 52/2/28 33/2/28
f 33/2/29 52/2/29 53/2/29 32/2/29
f 32/2/30 53/2/30 54/2/30 31/2/30
f 31/2/31 45/2/31 55/2/31 54/2/31
f 45/2/32 44/2/32 56/2/32 55/2/32
f 44/2/33 43/2/33 57/2/33 56/2/33
f 58/2/34 42/2/34 61/2/34 64/2/34
f 68/2/19 58/2/19 64/2/19
f 43/2/35 57/2/35 63/2/35 62/2/35
f 57/2/19 67/2/19 63/2/19
f 68/2/36 64/2/36 76/2/36
f 64/2/37 61/2/37 70/2/37 69/2/37
f 42/2/18 65/2/18 61/2/18
f 63/2/38 67/2/38 75/2/38
f 67/2/39 68/2/39 76/2/39 75/2/39
f 65/2/40 66/2/40 74/2/40 73/2/40
f 66/2/41 62/2/41 74/2/41
f 71/2/42 72/2/42 86/2/42 85/2/42
f 70/2/43 79/2/43 87/2/43 84/2/43
f 76/2/44 64/2/44 69/2/44 78/2/44
f 74/2/45 62/2/45 71/2/45 80/2/45
f 61/2/46 65/2/46 73/2/46
f 78/2/47 69/2/47 83/2/47 82/2/47
f 73/2/48 74/2/48 80/2/48 79/2/48
f 61/2/49 73/2/49 79/2/49 70/2/49
f 75/2/50 76/2/50 78/2/50 77/2/50
f 63/2/51 75/2/51 77/2/51 72/2/51
f 62/2/52 63/2/52 72/2/52 71/2/52
f 85/2/53 84/2/53 87/2/53 88/2/53
f 84/2/53 85/2/53 86/2/53 83/2/53
f 83/2/53 86/2/53 81/2/53 82/2/53
f 77/2/54 78/2/54 82/2/54 81/2/54
f 80/2/55 71/2/55 85/2/55 88/2/55
f 79/2/56 80/2/56 88/2/56 87/2/56
f 69/2/57 70/2/57 84/2/57 83/2/57
f 72/2/58 77/2/58 81/2/58 86/2/58
o Circle.004
v -0.155227 0.003000 -0.077367
v -0.186313 0.003000 -0.069700
v -0.210789 0.003000 -0.053346
v -0.227143 0.003000 -0.028871
v -0.232885 0.003000 0.000000
v -0.227143 0.003000 0.028871
v -0.210789 0.003000 0.053346
v -0.186313 0.003000 0.069700
v -0.155227 0.003000 0.077367
v -0.119990 0.003000 0.079538
v -0.089291 0.003000 0.065129
v -0.072727 0.003000 0.032981
v -0.072727 0.003000 -0.032981
v -0.089291 0.003000 -0.065129
v -0.119990 0.003000 -0.079538
v -0.186313 0.005000 -0.069700
v -0.155227 0.005000 -0.077367
v -0.210789 0.005000 -0.053346
v -0.227143 0.005000 -0.028871
v -0.232885 0.005000 0.000000
v -0.227143 0.005000 0.028871
v -0.210789 0.005000 0.053346
v -0.186313 0.005000 0.069700
v -0.155227 0.005000 0.077367
v -0.119990 0.005000 0.079538
v -0.089291 0.005000 0.065129
v -0.072727 0.005000 0.032981
v -0.072727 0.005000 -0.032981
v -0.089291 0.005000 -0.065129
v -0.119990 0.005000 -0.079538
vn -0.0000 1.0000 -0.0000
vn -0.0000 -1.0000 -0.0000
vn 0.9808 -0.0000 -0.1951
vn -1.0000 -0.0000 -0.0000
vn 0.8315 -0.0000 -0.5556
vn 0.8889 -0.0000 -0.4580
vn 0.5556 -0.0000 -0.8315
vn 0.4249 -0.0000 -0.9052
vn 0.2395 -0.0000 -0.9709
vn 0.2395 -0.0000 0.9709
vn -0.0615 -0.0000 -0.9981
vn 0.0615 -0.0000 -0.9981
vn 0.5556 -0.0000 0.8315
vn -0.4249 -0.0000 -0.9052
vn 0.8315 -0.0000 0.5556
vn -0.8889 -0.0000 -0.4580
vn 0.9808 -0.0000 0.1951
vt 0.000000 0.000000
s 0
usemtl Material.006
f 100/3/59 101/3/59 93/3/59
f 97/3/59 100/3/59 93/3/59
f 93/3/59 101/3/59 89/3/59
f 89/3/59 91/3/59 93/3/59
f 102/3/60 101/3/60 103/3/60
f 89/3/60 103/3/60 101/3/60
f 97/3/59 98/3/59 100/3/59
f 99/3/59 100/3/59 98/3/59
f 93/3/59 95/3/59 97/3/59
f 94/3/59 95/3/59 93/3/59
f 92/3/59 93/3/59 91/3/59
f 90/3/59 91/3/59 89/3/59
f 96/3/59 97/3/59 95/3/59
f 115/3/60 108/3/60 116/3/60
f 112/3/60 108/3/60 115/3/60
f 108/3/60 105/3/60 116/3/60
f 105/3/60 108/3/60 106/3/60
f 117/3/59 118/3/59 116/3/59
f 105/3/59 116/3/59 118/3/59
f 112/3/60 115/3/60 113/3/60
f 114/3/60 113/3/60 115/3/60
f 108/3/60 112/3/60 110/3/60
f 109/3/60 108/3/60 110/3/60
f 107/3/60 106/3/60 108/3/60
f 104/3/60 105/3/60 106/3/60
f 111/3/60 110/3/60 112/3/60
f 94/3/61 93/3/61 108/3/61 109/3/61
f 101/3/62 100/3/62 115/3/62 116/3/62
f 95/3/63 94/3/63 109/3/63 110/3/63
f 101/3/64 102/3/64 117/3/64 116/3/64
f 96/3/65 95/3/65 110/3/65 111/3/65
f 102/3/66 103/3/66 118/3/66 117/3/66
f 97/3/67 96/3/67 111/3/67 112/3/67
f 90/3/68 89/3/68 105/3/68 104/3/68
f 103/3/69 89/3/69 105/3/69 118/3/69
f 98/3/70 97/3/70 112/3/70 113/3/70
f 91/3/71 90/3/71 104/3/71 106/3/71
f 99/3/72 98/3/72 113/3/72 114/3/72
f 92/3/73 91/3/73 106/3/73 107/3/73
f 100/3/74 99/3/74 114/3/74 115/3/74
f 93/3/75 92/3/75 107/3/75 108/3/75
