# Blender 4.2.0
# www.blender.org
mtllib tabletennis.mtl
o Table_surface
v 1.350000 0.760000 -0.742500
v 1.350000 0.720000 -0.742500
v 1.350000 0.760000 0.742500
v 1.350000 0.720000 0.742500
v -1.350000 0.760000 -0.742500
v -1.350000 0.720000 -0.742500
v -1.350000 0.760000 0.742500
v -1.350000 0.720000 0.742500
v -1.370000 0.720000 -0.762500
v -1.370000 0.720000 0.762500
v 1.370000 0.720000 -0.762500
v 1.370000 0.760000 0.762500
v -1.370000 0.760000 0.762500
v 1.370000 0.760000 -0.762500
v 1.370000 0.720000 0.762500
v -1.370000 0.760000 -0.762500
v -1.370000 0.720000 0.003000
v -1.370000 0.720000 -0.003000
v 1.370000 0.760000 0.003000
v 1.370000 0.760000 -0.003000
v -1.370000 0.760000 -0.003000
v -1.370000 0.760000 0.003000
v 1.370000 0.720000 -0.003000
v 1.370000 0.720000 0.003000
v -1.350000 0.720000 -0.003000
v -1.350000 0.720000 0.003000
v 1.350000 0.760000 -0.003000
v 1.350000 0.760000 0.003000
v -1.350000 0.760000 0.003000
v -1.350000 0.760000 -0.003000
v 1.350000 0.720000 0.003000
v 1.350000 0.720000 -0.003000
v 1.350000 0.750000 -0.742500
v -1.350000 0.750000 -0.742500
v -1.350000 0.750000 0.742500
v 1.350000 0.750000 0.742500
v 1.350000 0.750000 0.003000
v 1.350000 0.750000 -0.003000
v -1.350000 0.750000 -0.003000
v -1.350000 0.750000 0.003000
v 0.000000 0.720000 -0.762500
v 0.000000 0.760000 0.762500
v 0.000000 0.720000 0.762500
v 0.000000 0.760000 -0.762500
v 0.000000 0.720000 -0.742500
v 0.000000 0.760000 0.742500
v 0.000000 0.720000 0.742500
v 0.000000 0.760000 -0.742500
v 0.000000 0.760000 0.003000
v 0.000000 0.760000 -0.003000
v 0.000000 0.750000 -0.742500
v 0.000000 0.750000 0.742500
v 0.000000 0.750000 0.003000
v 0.000000 0.750000 -0.003000
vn -0.0000 1.0000 -0.0000
vn -0.0000 -0.0000 1.0000
vn -0.0000 -0.0000 -1.0000
vn -1.0000 -0.0000 -0.0000
vn -0.0000 -1.0000 -0.0000
vn 1.0000 -0.0000 -0.0000
vt 0.750000 0.503279
vt 0.873175 0.503279
vt 0.873175 0.624508
vt 0.750000 0.624508
vt 0.375000 0.875000
vt 0.625000 0.875000
vt 0.625000 1.000000
vt 0.375000 1.000000
vt 0.626825 0.625492
vt 0.626825 0.746721
vt 0.625000 0.750000
vt 0.625000 0.625492
vt 0.250000 0.503279
vt 0.373175 0.503279
vt 0.626825 0.503279
vt 0.626825 0.624508
vt 0.625000 0.624508
vt 0.625000 0.500000
vt 0.375000 0.375000
vt 0.625000 0.375000
vt 0.375000 0.500000
vt 0.375000 0.125492
vt 0.625000 0.125492
vt 0.625000 0.250000
vt 0.375000 0.250000
vt 0.126825 0.503279
vt 0.125000 0.500000
vt 0.250000 0.500000
vt 0.750000 0.746721
vt 0.873175 0.746721
vt 0.875000 0.750000
vt 0.750000 0.750000
vt 0.625000 0.624508
vt 0.375000 0.624508
vt 0.250000 0.746721
vt 0.373175 0.746721
vt 0.375000 0.750000
vt 0.250000 0.750000
vt 0.873175 0.625492
vt 0.875000 0.625492
vt 0.750000 0.500000
vt 0.373175 0.625492
vt 0.375000 0.625492
vt 0.126825 0.625492
vt 0.126825 0.624508
vt 0.373175 0.624508
vt 0.875000 0.500000
vt 0.875000 0.624508
vt 0.126825 0.746721
vt 0.125000 0.750000
vt 0.125000 0.625492
vt 0.625000 0.625492
vt 0.750000 0.625492
vt 0.125000 0.624508
vt 0.375000 0.124508
vt 0.625000 0.124508
vt 0.626825 0.625492
vt 0.626825 0.624508
vt 0.375000 0.000000
vt 0.625000 0.000000
vt 0.250000 0.624508
vt 0.250000 0.625492
s 0
usemtl Material
f 43/5/2 42/6/2 13/7/2 10/8/2
f 45/13/2 2/14/2 33/14/2 51/13/2
f 41/19/3 44/20/3 14/18/3 11/21/3
f 18/22/4 21/23/4 16/24/4 9/25/4
f 45/13/5 6/26/5 9/27/5 41/28/5
f 11/21/6 14/18/6 20/33/6 23/34/6
f 47/35/5 4/36/5 15/37/5 43/38/5
f 4/36/5 31/42/5 24/43/5 15/37/5
f 26/44/6 25/45/6 39/45/6 40/44/6
f 32/46/5 2/14/5 11/21/5 23/34/5
f 26/44/5 8/49/5 10/50/5 17/51/5
f 24/43/6 19/52/6 12/11/6 15/37/6
f 6/26/5 25/45/5 18/54/5 9/27/5
f 32/46/5 23/34/5 24/43/5 31/42/5
f 26/44/5 17/51/5 18/54/5 25/45/5
f 19/52/6 24/43/6 23/34/6 20/33/6
f 47/35/3 8/49/3 35/49/3 52/35/3
f 21/23/4 18/22/4 17/55/4 22/56/4
f 10/59/4 13/60/4 22/56/4 17/55/4
f 51/13/5 33/14/5 38/46/5 54/61/5
f 53/62/5 37/42/5 36/36/5 52/35/5
f 53/62/5 40/44/5 39/45/5 54/61/5
f 31/42/4 4/36/4 36/36/4 37/42/4
f 8/49/6 26/44/6 40/44/6 35/49/6
f 25/45/6 6/26/6 34/26/6 39/45/6
f 32/46/4 31/42/4 37/42/4 38/46/4
f 2/14/4 32/46/4 38/46/4 33/14/4
f 37/42/5 53/62/5 54/61/5 38/46/5
f 40/44/5 53/62/5 52/35/5 35/49/5
f 34/26/5 51/13/5 54/61/5 39/45/5
f 4/36/3 47/35/3 52/35/3 36/36/3
f 8/49/5 47/35/5 43/38/5 10/50/5
f 2/14/5 45/13/5 41/28/5 11/21/5
f 9/25/3 16/24/3 44/20/3 41/19/3
f 6/26/2 45/13/2 51/13/2 34/26/2
f 15/37/2 12/11/2 42/6/2 43/5/2
usemtl Material.009
f 28/9/1 3/10/1 12/11/1 19/12/1
f 1/15/1 27/16/1 20/17/1 14/18/1
f 46/29/1 7/30/1 13/31/1 42/32/1
f 7/30/1 29/39/1 22/40/1 13/31/1
f 48/1/1 1/15/1 14/18/1 44/41/1
f 30/3/1 5/2/1 16/47/1 21/48/1
f 30/3/1 21/48/1 22/40/1 29/39/1
f 28/9/1 19/12/1 20/17/1 27/16/1
f 49/53/1 28/57/1 27/58/1 50/4/1
f 29/39/1 49/53/1 50/4/1 30/3/1
f 5/2/1 48/1/1 44/41/1 16/47/1
f 3/10/1 46/29/1 42/32/1 12/11/1
usemtl Material.001
f 48/1/1 5/2/1 30/3/1 50/4/1
f 49/53/1 29/39/1 7/30/1 46/29/1
f 28/57/1 49/53/1 46/29/1 3/10/1
f 1/15/1 48/1/1 50/4/1 27/58/1
o Table_legs
v 0.328949 0.000000 0.532839
v 0.328949 0.750000 0.532839
v 0.328949 0.000000 0.482839
v 0.328949 0.750000 0.482839
v 0.378949 0.000000 0.532839
v 0.378949 0.750000 0.532839
v 0.378949 0.000000 0.482839
v 0.378949 0.750000 0.482839
v 0.328949 0.350000 0.532839
v 0.328949 0.400000 0.532839
v 0.328949 0.400000 0.482839
v 0.328949 0.350000 0.482839
v 0.378949 0.400000 0.482839
v 0.378949 0.350000 0.482839
v 0.378949 0.400000 0.532839
v 0.378949 0.350000 0.532839
v 0.974690 0.000000 0.532839
v 0.974690 0.750000 0.532839
v 0.974690 0.000000 0.482839
v 0.974690 0.750000 0.482839
v 1.024691 0.000000 0.532839
v 1.024691 0.750000 0.532839
v 1.024691 0.000000 0.482839
v 1.024691 0.750000 0.482839
v 0.974690 0.350000 0.532839
v 0.974690 0.400000 0.532839
v 0.974690 0.400000 0.482839
v 0.974690 0.350000 0.482839
v 1.024691 0.400000 0.482839
v 1.024691 0.350000 0.482839
v 1.024691 0.400000 0.532839
v 1.024691 0.350000 0.532839
v -0.328949 0.000000 0.532839
v -0.328949 0.750000 0.532839
v -0.328949 0.000000 0.482839
v -0.328949 0.750000 0.482839
v -0.378949 0.000000 0.532839
v -0.378949 0.750000 0.532839
v -0.378949 0.000000 0.482839
v -0.378949 0.750000 0.482839
v -0.328949 0.350000 0.532839
v -0.328949 0.400000 0.532839
v -0.328949 0.400000 0.482839
v -0.328949 0.350000 0.482839
v -0.378949 0.400000 0.482839
v -0.378949 0.350000 0.482839
v -0.378949 0.400000 0.532839
v -0.378949 0.350000 0.532839
v -0.974690 0.000000 0.532839
v -0.974690 0.750000 0.532839
v -0.974690 0.000000 0.482839
v -0.974690 0.750000 0.482839
v -1.024691 0.000000 0.532839
v -1.024691 0.750000 0.532839
v -1.024691 0.000000 0.482839
v -1.024691 0.750000 0.482839
v -0.974690 0.350000 0.532839
v -0.974690 0.400000 0.532839
v -0.974690 0.400000 0.482839
v -0.974690 0.350000 0.482839
v -1.024691 0.400000 0.482839
v -1.024691 0.350000 0.482839
v -1.024691 0.400000 0.532839
v -1.024691 0.350000 0.532839
v 0.328949 0.000000 -0.532839
v 0.328949 0.750000 -0.532839
v 0.328949 0.000000 -0.482839
v 0.328949 0.750000 -0.482839
v 0.378949 0.000000 -0.532839
v 0.378949 0.750000 -0.532839
v 0.378949 0.000000 -0.482839
v 0.378949 0.750000 -0.482839
v 0.328949 0.350000 -0.532839
v 0.328949 0.400000 -0.532839
v 0.328949 0.400000 -0.482839
v 0.328949 0.350000 -0.482839
v 0.378949 0.400000 -0.482839
v 0.378949 0.350000 -0.482839
v 0.378949 0.400000 -0.532839
v 0.378949 0.350000 -0.532839
v 0.974690 0.000000 -0.532839
v 0.974690 0.750000 -0.532839
v 0.974690 0.000000 -0.482839
v 0.974690 0.750000 -0.482839
v 1.024691 0.000000 -0.532839
v 1.024691 0.750000 -0.532839
v 1.024691 0.000000 -0.482839
v 1.024691 0.750000 -0.482839
v 0.974690 0.350000 -0.532839
v 0.974690 0.400000 -0.532839
v 0.974690 0.400000 -0.482839
v 0.974690 0.350000 -0.482839
v 1.024691 0.400000 -0.482839
v 1.024691 0.350000 -0.482839
v 1.024691 0.400000 -0.532839
v 1.024691 0.350000 -0.532839
v -0.328949 0.000000 -0.532839
v -0.328949 0.750000 -0.532839
v -0.328949 0.000000 -0.482839
v -0.328949 0.750000 -0.482839
v -0.378949 0.000000 -0.532839
v -0.378949 0.750000 -0.532839
v -0.378949 0.000000 -0.482839
v -0.378949 0.750000 -0.482839
v -0.328949 0.350000 -0.532839
v -0.328949 0.400000 -0.532839
v -0.328949 0.400000 -0.482839
v -0.328949 0.350000 -0.482839
v -0.378949 0.400000 -0.482839
v -0.378949 0.350000 -0.482839
v -0.378949 0.400000 -0.532839
v -0.378949 0.350000 -0.532839
v -0.974690 0.000000 -0.532839
v -0.974690 0.750000 -0.532839
v -0.974690 0.000000 -0.482839
v -0.974690 0.750000 -0.482839
v -1.024691 0.000000 -0.532839
v -1.024691 0.750000 -0.532839
v -1.024691 0.000000 -0.482839
v -1.024691 0.750000 -0.482839
v -0.974690 0.350000 -0.532839
v -0.974690 0.400000 -0.532839
v -0.974690 0.400000 -0.482839
v -0.974690 0.350000 -0.482839
v -1.024691 0.400000 -0.482839
v -1.024691 0.350000 -0.482839
v -1.024691 0.400000 -0.532839
v -1.024691 0.350000 -0.532839
vn -1.0000 -0.0000 -0.0000
vn -0.0000 -0.0000 -1.0000
vn 1.0000 -0.0000 -0.0000
vn -0.0000 -0.0000 1.0000
vn -0.0000 -1.0000 -0.0000
vn -0.0000 1.0000 -0.0000
vt 0.541667 0.000000
vt 0.625000 0.000000
vt 0.625000 0.250000
vt 0.541667 0.250000
vt 0.625000 0.500000
vt 0.541667 0.500000
vt 0.625000 0.750000
vt 0.541667 0.750000
vt 0.625000 1.000000
vt 0.541667 1.000000
vt 0.125000 0.500000
vt 0.375000 0.500000
vt 0.375000 0.750000
vt 0.125000 0.750000
vt 0.875000 0.500000
vt 0.875000 0.750000
vt 0.458333 0.750000
vt 0.458333 1.000000
vt 0.375000 1.000000
vt 0.458333 0.500000
vt 0.375000 0.250000
vt 0.458333 0.250000
vt 0.375000 0.000000
vt 0.458333 0.000000
s 0
usemtl Material
f 64/63/7 56/64/7 58/65/7 65/66/7
f 65/66/8 58/65/8 62/67/8 67/68/8
f 67/68/9 62/67/9 60/69/9 69/70/9
f 69/70/10 60/69/10 56/71/10 64/72/10
f 57/73/11 61/74/11 59/75/11 55/76/11
f 62/67/12 58/77/12 56/78/12 60/69/12
f 59/75/10 70/79/10 63/80/10 55/81/10
f 70/79/10 69/70/10 64/72/10 63/80/10
f 61/74/9 68/82/9 70/79/9 59/75/9
f 79/80/10 80/72/10 69/70/10 70/79/10
f 57/83/8 66/84/8 68/82/8 61/74/8
f 66/84/8 65/66/8 67/68/8 68/82/8
f 55/85/7 63/86/7 66/84/7 57/83/7
f 63/86/7 64/63/7 65/66/7 66/84/7
f 80/63/7 72/64/7 74/65/7 81/66/7
f 81/66/8 74/65/8 78/67/8 83/68/8
f 83/68/9 78/67/9 76/69/9 85/70/9
f 85/70/10 76/69/10 72/71/10 80/72/10
f 73/73/11 77/74/11 75/75/11 71/76/11
f 78/67/12 74/77/12 72/78/12 76/69/12
f 75/75/10 86/79/10 79/80/10 71/81/10
f 86/79/10 85/70/10 80/72/10 79/80/10
f 77/74/9 84/82/9 86/79/9 75/75/9
f 84/82/9 83/68/9 85/70/9 86/79/9
f 73/83/8 82/84/8 84/82/8 77/74/8
f 82/84/8 81/66/8 83/68/8 84/82/8
f 71/85/7 79/86/7 82/84/7 73/83/7
f 82/84/11 79/86/11 70/79/11 68/82/11
f 80/63/12 81/66/12 67/68/12 69/70/12
f 81/66/8 82/84/8 68/82/8 67/68/8
f 96/63/9 97/66/9 90/65/9 88/64/9
f 97/66/8 99/68/8 94/67/8 90/65/8
f 99/68/7 101/70/7 92/69/7 94/67/7
f 101/70/10 96/72/10 88/71/10 92/69/10
f 89/73/11 87/76/11 91/75/11 93/74/11
f 94/67/12 92/69/12 88/78/12 90/77/12
f 91/75/10 87/81/10 95/80/10 102/79/10
f 102/79/10 95/80/10 96/72/10 101/70/10
f 93/74/7 91/75/7 102/79/7 100/82/7
f 111/80/10 102/79/10 101/70/10 112/72/10
f 89/83/8 93/74/8 100/82/8 98/84/8
f 98/84/8 100/82/8 99/68/8 97/66/8
f 87/85/9 89/83/9 98/84/9 95/86/9
f 95/86/9 98/84/9 97/66/9 96/63/9
f 112/63/9 113/66/9 106/65/9 104/64/9
f 113/66/8 115/68/8 110/67/8 106/65/8
f 115/68/7 117/70/7 108/69/7 110/67/7
f 117/70/10 112/72/10 104/71/10 108/69/10
f 105/73/11 103/76/11 107/75/11 109/74/11
f 110/67/12 108/69/12 104/78/12 106/77/12
f 107/75/10 103/81/10 111/80/10 118/79/10
f 118/79/10 111/80/10 112/72/10 117/70/10
f 109/74/7 107/75/7 118/79/7 116/82/7
f 116/82/7 118/79/7 117/70/7 115/68/7
f 105/83/8 109/74/8 116/82/8 114/84/8
f 114/84/8 116/82/8 115/68/8 113/66/8
f 103/85/9 105/83/9 114/84/9 111/86/9
f 114/84/11 100/82/11 102/79/11 111/86/11
f 112/63/12 101/70/12 99/68/12 113/66/12
f 113/66/8 99/68/8 100/82/8 114/84/8
f 128/63/7 129/66/7 122/65/7 120/64/7
f 129/66/10 131/68/10 126/67/10 122/65/10
f 131/68/9 133/70/9 124/69/9 126/67/9
f 133/70/8 128/72/8 120/71/8 124/69/8
f 121/73/11 119/76/11 123/75/11 125/74/11
f 126/67/12 124/69/12 120/78/12 122/77/12
f 123/75/8 119/81/8 127/80/8 134/79/8
f 134/79/8 127/80/8 128/72/8 133/70/8
f 125/74/9 123/75/9 134/79/9 132/82/9
f 143/80/8 134/79/8 133/70/8 144/72/8
f 121/83/10 125/74/10 132/82/10 130/84/10
f 130/84/10 132/82/10 131/68/10 129/66/10
f 119/85/7 121/83/7 130/84/7 127/86/7
f 127/86/7 130/84/7 129/66/7 128/63/7
f 144/63/7 145/66/7 138/65/7 136/64/7
f 145/66/10 147/68/10 142/67/10 138/65/10
f 147/68/9 149/70/9 140/69/9 142/67/9
f 149/70/8 144/72/8 136/71/8 140/69/8
f 137/73/11 135/76/11 139/75/11 141/74/11
f 142/67/12 140/69/12 136/78/12 138/77/12
f 139/75/8 135/81/8 143/80/8 150/79/8
f 150/79/8 143/80/8 144/72/8 149/70/8
f 141/74/9 139/75/9 150/79/9 148/82/9
f 148/82/9 150/79/9 149/70/9 147/68/9
f 137/83/10 141/74/10 148/82/10 146/84/10
f 146/84/10 148/82/10 147/68/10 145/66/10
f 135/85/7 137/83/7 146/84/7 143/86/7
f 146/84/11 132/82/11 134/79/11 143/86/11
f 144/63/12 133/70/12 131/68/12 145/66/12
f 145/66/10 131/68/10 132/82/10 146/84/10
f 160/63/9 152/64/9 154/65/9 161/66/9
f 161/66/10 154/65/10 158/67/10 163/68/10
f 163/68/7 158/67/7 156/69/7 165/70/7
f 165/70/8 156/69/8 152/71/8 160/72/8
f 153/73/11 157/74/11 155/75/11 151/76/11
f 158/67/12 154/77/12 152/78/12 156/69/12
f 155/75/8 166/79/8 159/80/8 151/81/8
f 166/79/8 165/70/8 160/72/8 159/80/8
f 157/74/7 164/82/7 166/79/7 155/75/7
f 175/80/8 176/72/8 165/70/8 166/79/8
f 153/83/10 162/84/10 164/82/10 157/74/10
f 162/84/10 161/66/10 163/68/10 164/82/10
f 151/85/9 159/86/9 162/84/9 153/83/9
f 159/86/9 160/63/9 161/66/9 162/84/9
f 176/63/9 168/64/9 170/65/9 177/66/9
f 177/66/10 170/65/10 174/67/10 179/68/10
f 179/68/7 174/67/7 172/69/7 181/70/7
f 181/70/8 172/69/8 168/71/8 176/72/8
f 169/73/11 173/74/11 171/75/11 167/76/11
f 174/67/12 170/77/12 168/78/12 172/69/12
f 171/75/8 182/79/8 175/80/8 167/81/8
f 182/79/8 181/70/8 176/72/8 175/80/8
f 173/74/7 180/82/7 182/79/7 171/75/7
f 180/82/7 179/68/7 181/70/7 182/79/7
f 169/83/10 178/84/10 180/82/10 173/74/10
f 178/84/10 177/66/10 179/68/10 180/82/10
f 167/85/9 175/86/9 178/84/9 169/83/9
f 178/84/11 175/86/11 166/79/11 164/82/11
f 176/63/12 177/66/12 163/68/12 165/70/12
f 177/66/10 178/84/10 164/82/10 163/68/10
o Net_posts
v -0.010000 0.760000 0.762500
v -0.010000 0.720000 0.762500
v 0.010000 0.760000 0.762500
v 0.010000 0.720000 0.762500
v 0.006341 0.720000 0.762500
v -0.006341 0.720000 0.762500
v -0.010000 0.756138 0.762500
v 0.010000 0.756138 0.762500
v -0.006341 0.756138 0.762500
v 0.006341 0.756138 0.762500
v -0.010000 0.756138 0.925000
v 0.010000 0.756138 0.925000
v -0.006341 0.756138 0.925000
v 0.006494 0.760000 0.921494
v 0.006341 0.756138 0.925000
v -0.006494 0.760000 0.921494
v 0.010000 0.756138 0.905000
v -0.006494 0.760000 0.908506
v -0.010000 0.756138 0.905000
v 0.006494 0.760000 0.908506
v -0.010000 0.760000 0.925000
v 0.010000 0.760000 0.925000
v -0.010000 0.760000 0.905000
v 0.010000 0.760000 0.905000
v -0.006494 0.913220 0.921494
v 0.006494 0.913220 0.921494
v -0.006494 0.913220 0.908506
v 0.006494 0.913220 0.908506
v -0.010000 0.760000 -0.762500
v -0.010000 0.720000 -0.762500
v 0.010000 0.760000 -0.762500
v 0.010000 0.720000 -0.762500
v 0.006341 0.720000 -0.762500
v -0.006341 0.720000 -0.762500
v -0.010000 0.756138 -0.762500
v 0.010000 0.756138 -0.762500
v -0.006341 0.756138 -0.762500
v 0.006341 0.756138 -0.762500
v -0.010000 0.756138 -0.925000
v 0.010000 0.756138 -0.925000
v -0.006341 0.756138 -0.925000
v 0.006494 0.760000 -0.921494
v 0.006341 0.756138 -0.925000
v -0.006494 0.760000 -0.921494
v 0.010000 0.756138 -0.905000
v -0.006494 0.760000 -0.908506
v -0.010000 0.756138 -0.905000
v 0.006494 0.760000 -0.908506
v -0.010000 0.760000 -0.925000
v 0.010000 0.760000 -0.925000
v -0.010000 0.760000 -0.905000
v 0.010000 0.760000 -0.905000
v -0.006494 0.913220 -0.921494
v 0.006494 0.913220 -0.921494
v -0.006494 0.913220 -0.908506
v 0.006494 0.913220 -0.908506
vn -1.0000 -0.0000 -0.0000
vn -0.0000 -0.0000 -1.0000
vn -0.0000 0.9762 -0.2171
vn -0.0000 1.0000 -0.0000
vn 1.0000 -0.0000 -0.0000
vn -0.0000 -1.0000 -0.0000
vn -0.0000 -0.0000 1.0000
vn -0.0000 0.9762 0.2171
vt 0.000000 0.000000
s 0
usemtl Material
f 191/87/13 188/87/13 195/87/13
f 190/87/13 186/87/13 194/87/13 199/87/13
f 206/87/13 199/87/13 194/87/13 204/87/13
f 188/87/14 191/87/14 192/87/14 187/87/14
f 186/87/15 187/87/15 197/87/15 194/87/15
f 192/87/16 191/87/16 195/87/16 197/87/16
f 197/87/14 204/87/14 194/87/14
f 193/87/14 203/87/14 195/87/14
f 195/87/14 203/87/14 204/87/14 197/87/14
f 188/87/15 184/87/15 193/87/15 195/87/15
f 187/87/17 192/87/17 197/87/17
f 201/87/17 205/87/17 203/87/17 193/87/17
f 184/87/17 189/87/17 201/87/17 193/87/17
f 202/87/13 196/87/13 208/87/13 210/87/13
f 183/87/18 185/87/18 206/87/18 205/87/18
f 189/87/17 183/87/17 205/87/17 201/87/17
f 185/87/13 190/87/13 199/87/13 206/87/13
f 198/87/18 196/87/18 204/87/18 203/87/18
f 200/87/18 198/87/18 203/87/18 205/87/18
f 196/87/18 202/87/18 206/87/18 204/87/18
f 202/87/18 200/87/18 205/87/18 206/87/18
f 209/87/18 210/87/18 208/87/18 207/87/18
f 196/87/14 198/87/14 207/87/14 208/87/14
f 200/87/19 202/87/19 210/87/19 209/87/19
f 198/87/17 200/87/17 209/87/17 207/87/17
f 219/87/13 223/87/13 216/87/13
f 218/87/13 227/87/13 222/87/13 214/87/13
f 234/87/13 232/87/13 222/87/13 227/87/13
f 216/87/19 215/87/19 220/87/19 219/87/19
f 214/87/20 222/87/20 225/87/20 215/87/20
f 220/87/16 225/87/16 223/87/16 219/87/16
f 225/87/19 222/87/19 232/87/19
f 221/87/19 223/87/19 231/87/19
f 223/87/19 225/87/19 232/87/19 231/87/19
f 216/87/20 223/87/20 221/87/20 212/87/20
f 215/87/17 225/87/17 220/87/17
f 229/87/17 221/87/17 231/87/17 233/87/17
f 212/87/17 221/87/17 229/87/17 217/87/17
f 230/87/13 238/87/13 236/87/13 224/87/13
f 211/87/18 233/87/18 234/87/18 213/87/18
f 217/87/17 229/87/17 233/87/17 211/87/17
f 213/87/13 234/87/13 227/87/13 218/87/13
f 226/87/18 231/87/18 232/87/18 224/87/18
f 228/87/18 233/87/18 231/87/18 226/87/18
f 224/87/18 232/87/18 234/87/18 230/87/18
f 230/87/18 234/87/18 233/87/18 228/87/18
f 237/87/18 235/87/18 236/87/18 238/87/18
f 224/87/19 236/87/19 235/87/19 226/87/19
f 228/87/14 237/87/14 238/87/14 230/87/14
f 226/87/17 235/87/17 237/87/17 228/87/17
